<?xml version="1.0" encoding="UTF-8" standalone="no"?>
<!-- Created with Inkscape (http://www.inkscape.org/) -->

<svg
   xmlns:dc="http://purl.org/dc/elements/1.1/"
   xmlns:cc="http://creativecommons.org/ns#"
   xmlns:rdf="http://www.w3.org/1999/02/22-rdf-syntax-ns#"
   xmlns:svg="http://www.w3.org/2000/svg"
   xmlns="http://www.w3.org/2000/svg"
   xmlns:xlink="http://www.w3.org/1999/xlink"
   xmlns:sodipodi="http://sodipodi.sourceforge.net/DTD/sodipodi-0.dtd"
   xmlns:inkscape="http://www.inkscape.org/namespaces/inkscape"
   sodipodi:docname="finished_logo2_inverted.svg"
   viewBox="0 0 192 192"
   height="192"
   width="192"
   xml:space="preserve"
   inkscape:version="0.92.4 5da689c313, 2019-01-14"
   version="1.1"
   id="svg2"
   inkscape:export-filename="/home/ochii/uncso2_logo/ico.png"
   inkscape:export-xdpi="22"
   inkscape:export-ydpi="22"
   enable-background="new"><sodipodi:namedview
     inkscape:current-layer="layer1"
     inkscape:window-maximized="0"
     inkscape:window-y="97"
     inkscape:window-x="-4"
     inkscape:cy="68.336911"
     inkscape:cx="94.087761"
     inkscape:zoom="2.8284271"
     showgrid="false"
     id="namedview4"
     inkscape:window-height="1013"
     inkscape:window-width="1141"
     inkscape:pageshadow="2"
     inkscape:pageopacity="0"
     guidetolerance="10"
     gridtolerance="10"
     objecttolerance="10"
     borderopacity="1"
     bordercolor="#666666"
     pagecolor="#d7d7d7"
     inkscape:snap-bbox="true"
     inkscape:bbox-paths="true"
     inkscape:bbox-nodes="true"
     inkscape:snap-bbox-edge-midpoints="true"
     inkscape:snap-bbox-midpoints="true"
     inkscape:object-paths="true"
     inkscape:snap-intersection-paths="true"
     inkscape:snap-smooth-nodes="true"
     inkscape:snap-midpoints="true"
     showguides="false"><inkscape:grid
       empspacing="4"
       type="xygrid"
       id="grid4646" /></sodipodi:namedview><metadata
     id="metadata8"><rdf:RDF><cc:Work
         rdf:about=""><dc:format>image/svg+xml</dc:format><dc:type
           rdf:resource="http://purl.org/dc/dcmitype/StillImage" /><dc:title></dc:title></cc:Work></rdf:RDF></metadata><defs
     id="defs6"><linearGradient
       inkscape:collect="always"
       id="linearGradient1763"><stop
         style="stop-color:#e3f2fd;stop-opacity:0.2"
         offset="0"
         id="stop1759" /><stop
         style="stop-color:#2962ff;stop-opacity:0"
         offset="1"
         id="stop1761" /></linearGradient><linearGradient
       inkscape:collect="always"
       id="linearGradient3990"><stop
         style="stop-color:#ffffff;stop-opacity:0.1"
         offset="0"
         id="stop3986" /><stop
         style="stop-color:#e3f2fd;stop-opacity:0"
         offset="1"
         id="stop3988" /></linearGradient><filter
       style="color-interpolation-filters:sRGB;"
       inkscape:label="Drop Shadow"
       id="filter3884"><feFlood
         flood-opacity="0.239216"
         flood-color="rgb(0,0,0)"
         result="flood"
         id="feFlood3874" /><feComposite
         in="flood"
         in2="SourceGraphic"
         operator="in"
         result="composite1"
         id="feComposite3876" /><feGaussianBlur
         in="composite1"
         stdDeviation="2"
         result="blur"
         id="feGaussianBlur3878" /><feOffset
         dx="0"
         dy="4"
         result="offset"
         id="feOffset3880" /><feComposite
         in="SourceGraphic"
         in2="offset"
         operator="over"
         result="fbSourceGraphic"
         id="feComposite3882" /><feColorMatrix
         result="fbSourceGraphicAlpha"
         in="fbSourceGraphic"
         values="0 0 0 -1 0 0 0 0 -1 0 0 0 0 -1 0 0 0 0 1 0"
         id="feColorMatrix3922" /><feFlood
         id="feFlood3924"
         flood-opacity="0.0470588"
         flood-color="rgb(0,0,0)"
         result="flood"
         in="fbSourceGraphic" /><feComposite
         in2="fbSourceGraphic"
         id="feComposite3926"
         in="flood"
         operator="in"
         result="composite1" /><feGaussianBlur
         id="feGaussianBlur3928"
         in="composite1"
         stdDeviation="2"
         result="blur" /><feOffset
         id="feOffset3930"
         dx="0"
         dy="0"
         result="offset" /><feComposite
         in2="offset"
         id="feComposite3932"
         in="fbSourceGraphic"
         operator="over"
         result="composite2" /></filter><linearGradient
       inkscape:collect="always"
       xlink:href="#linearGradient3990"
       id="linearGradient3992"
       x1="8"
       y1="8"
       x2="8"
       y2="96"
       gradientUnits="userSpaceOnUse" /><linearGradient
       inkscape:collect="always"
       xlink:href="#linearGradient1763"
       id="linearGradient1765"
       x1="95.999702"
       y1="95.999496"
       x2="172.0005"
       y2="172.0005"
       gradientUnits="userSpaceOnUse" /><filter
       style="color-interpolation-filters:sRGB;"
       inkscape:label="Drop Shadow"
       id="filter3757"><feFlood
         flood-opacity="0.2"
         flood-color="rgb(26,35,126)"
         result="flood"
         id="feFlood3747" /><feComposite
         in="flood"
         in2="SourceGraphic"
         operator="in"
         result="composite1"
         id="feComposite3749" /><feGaussianBlur
         in="composite1"
         stdDeviation="0"
         result="blur"
         id="feGaussianBlur3751" /><feOffset
         dx="0"
         dy="1"
         result="offset"
         id="feOffset3753" /><feComposite
         in="SourceGraphic"
         in2="offset"
         operator="over"
         result="fbSourceGraphic"
         id="feComposite3755" /><feColorMatrix
         result="fbSourceGraphicAlpha"
         in="fbSourceGraphic"
         values="0 0 0 -1 0 0 0 0 -1 0 0 0 0 -1 0 0 0 0 1 0"
         id="feColorMatrix3783" /><feFlood
         id="feFlood3785"
         flood-opacity="0.2"
         flood-color="rgb(26,35,126)"
         result="flood"
         in="fbSourceGraphic" /><feComposite
         in2="fbSourceGraphic"
         id="feComposite3787"
         in="flood"
         operator="in"
         result="composite1" /><feGaussianBlur
         id="feGaussianBlur3789"
         in="composite1"
         stdDeviation="4"
         result="blur" /><feOffset
         id="feOffset3791"
         dx="4"
         dy="4"
         result="offset" /><feComposite
         in2="offset"
         id="feComposite3793"
         in="fbSourceGraphic"
         operator="over"
         result="composite2" /></filter></defs><g
     inkscape:groupmode="layer"
     id="layer1"
     inkscape:label="bg"
     style="display:inline"
     sodipodi:insensitive="true"><circle
       style="fill:#e3f2fd;fill-opacity:1;stroke-width:3.77952766;stroke-linecap:square;stroke-linejoin:round;stroke-miterlimit:4;stroke-dasharray:7.55905533, 7.55905533;stroke-dashoffset:0;paint-order:stroke fill markers;filter:url(#filter3884)"
       id="path2101"
       cx="96"
       cy="96"
       r="88" /><path
       style="fill:#ffffff;fill-opacity:0.07843137;stroke-width:3.77952766;stroke-linecap:square;stroke-linejoin:round;stroke-miterlimit:4;stroke-dasharray:7.55905533, 7.55905533;stroke-dashoffset:0;paint-order:stroke fill markers"
       d="M 96,8 A 88,88 0 0 0 8,96 88,88 0 0 0 8.0214844,96.585938 88,88 0 0 1 96,9 88,88 0 0 1 183.97852,96.414062 88,88 0 0 0 184,96 88,88 0 0 0 96,8 Z"
       id="circle2179"
       inkscape:connector-curvature="0" /><path
       style="fill:#1a237e;fill-opacity:0.2;stroke-width:3.77952766;stroke-linecap:square;stroke-linejoin:round;stroke-miterlimit:4;stroke-dasharray:7.55905533, 7.55905533;stroke-dashoffset:0;paint-order:stroke fill markers"
       d="M 183.97852,95.414062 A 88,88 0 0 1 96,183 88,88 0 0 1 8.0214844,95.585938 88,88 0 0 0 8,96 a 88,88 0 0 0 88,88 88,88 0 0 0 88,-88 88,88 0 0 0 -0.0215,-0.585938 z"
       id="circle2184"
       inkscape:connector-curvature="0" /></g><g
     inkscape:groupmode="layer"
     id="layer3"
     inkscape:label="mp5 shadow"
     style="display:inline"
     sodipodi:insensitive="true"><path
       style="display:inline;opacity:1;fill:url(#linearGradient1765);fill-opacity:1;stroke-width:0.25306839"
       d="M 33.119141,67.974609 C 33.826063,76.681873 32.2495,77.33482 22.691409,78.472656 l 54.615235,44.599614 c 5.339233,2.44452 0.641674,6.32336 -0.765625,10.22461 l 55.195311,43 C 163.47786,162.19139 183.95252,130.73452 184,96 183.98287,90.604958 183.46964,85.222921 182.4668,79.921875 L 172.43945,72.0625 c -1.15462,-0.78354 -2.00487,-0.7754 -5.38281,0.04687 -2.12747,0.517888 -3.11254,0.868148 -3.58398,1.634766 -0.34473,-0.554891 -0.65446,-1.006026 -0.85547,-1.207032 -0.35512,-0.355118 -0.67507,-0.484214 -1.99805,-0.537109 -0.55087,-0.960925 -1.08925,-1.823626 -1.38867,-2.123047 -0.35529,-0.355293 -0.67526,-0.482318 -2,-0.535156 -3.97109,-0.445601 -4.87859,-2.700617 -7.02344,-2.701172 L 142.48828,64.5 c -0.23705,-0.992442 -0.88949,-1.944893 -1.67773,-2.34375 -0.34379,-0.17396 -1.14135,-0.318273 -1.77149,-0.320312 l -6.74804,4.585937 -86.857426,1.158202 c -2.222562,-0.05036 -2.229567,-0.935026 -3.955078,-5.400391 -0.817115,-0.664159 -2.253189,-0.583313 -2.81836,0.08203 -1.535842,6.602997 -2.015834,6.390512 -5.541015,5.712893 z"
       id="path1508"
       inkscape:connector-curvature="0"
       sodipodi:nodetypes="ccccccccccccccccccccccc" /></g><g
     inkscape:groupmode="layer"
     id="layer2"
     inkscape:label="mp5 retracted"
     style="display:inline"
     sodipodi:insensitive="true"><path
       style="display:inline;opacity:1;fill:#2962ff;fill-opacity:1;stroke-width:0.25306839;filter:url(#filter3757)"
       d="m 81.778315,135.07348 c 0.700399,-0.7004 6.471678,-12.51483 8.248873,-16.88634 2.468214,-6.07124 4.775929,-13.47348 6.405223,-20.54543 0.887076,-3.85035 1.113015,-4.0511 4.559399,-4.0511 1.99742,0.0155 2.63864,-0.10484 3.62266,0.18595 0.44132,0.20108 0.66669,0.62569 0.91062,1.71567 0.5994,2.6784 2.05237,6.78998 2.69913,7.63792 0.35276,0.46249 1.11878,1.09012 1.70227,1.3947 0.97958,0.51135 1.42935,0.5548 5.86918,0.56706 5.42943,0.015 5.02327,0.12502 9.04983,-2.45161 1.1115,-0.71125 2.12784,-1.19382 2.34159,-1.1118 0.59185,0.22712 1.89135,2.45454 2.06479,3.53918 0.0863,0.53977 0.5334,1.47462 0.99353,2.07743 1.21016,1.58539 1.78971,2.8353 2.10469,4.53919 0.1862,1.00725 0.53269,1.8191 1.05236,2.46576 1.07567,1.33853 1.70877,2.87936 1.90682,4.64083 0.27449,2.44133 0.23001,2.40936 3.21357,2.31002 2.29024,-0.0762 2.72769,-0.16813 3.8472,-0.80799 0.69472,-0.39706 1.43988,-0.87073 1.65589,-1.05259 0.21602,-0.18187 1.24014,-0.76437 2.27582,-1.29446 1.21957,-0.62421 1.91623,-1.13909 1.97719,-1.46127 0.0518,-0.27361 0.53272,-0.97473 1.06877,-1.55805 1.2923,-1.40627 1.41071,-2.00973 0.744,-3.79167 -1.5079,-4.0302 -4.11852,-8.09442 -7.69257,-11.97578 -2.61247,-2.83711 -3.10228,-4.33646 -2.29961,-7.03934 0.2898,-0.97585 0.74124,-1.65913 1.77148,-2.68117 1.07989,-1.0713 1.38256,-1.54257 1.38256,-2.15274 v -0.78118 h 4.01497 c 3.67996,0 4.07066,-0.0438 4.68245,-0.52505 0.63348,-0.4983 3.07155,-4.76747 3.21052,-4.32917 0.26686,-1.65587 0.39176,-1.69193 2.11921,-1.73708 1.09301,0.11107 0.66808,-0.11053 2.16059,0.43046 l 1.01228,0.64137 c 0.55675,0.35276 1.44458,1.27092 1.97295,2.04036 1.00893,1.46926 1.8003,4.16192 4.08712,13.90654 1.03862,4.42579 1.91826,6.47778 2.99608,6.98915 0.95598,0.45356 1.9292,0.10048 2.64826,-0.96078 0.88947,-1.31277 0.75026,-4.40075 -0.4281,-9.49639 -0.64881,-2.80566 -0.9959,-7.02117 -0.8543,-10.37581 0.27548,-6.52689 0.25405,-9.92031 -0.0719,-11.38529 -0.18548,-0.8336 -0.45112,-1.5536 -0.59031,-1.6 -0.13919,-0.0464 -0.66046,-0.36081 -1.15838,-0.69871 -1.15462,-0.78354 -2.00455,-0.77628 -5.38249,0.046 -3.25451,0.79224 -3.86113,1.17144 -3.99277,3.29171 l -0.17965,1.43792 -1.51695,-0.0877 c -1.42117,-0.12222 -1.46903,-0.29555 -1.89544,-2.39196 l -0.30939,-1.05071 c -0.39973,-1.35751 -2.57143,-5.3419 -3.31916,-6.08963 -0.56371,-0.56371 -0.70542,-0.57825 -5.63618,-0.57825 -3.09898,0 -5.11851,0.098 -5.21434,0.25307 -0.086,0.13918 -0.59303,0.25307 -1.12667,0.25307 -1.10708,0 -1.27748,-0.25095 -1.27748,-1.88129 0,-1.23068 -0.78799,-2.60789 -1.77908,-3.10939 -0.34379,-0.17396 -1.14065,-0.31798 -1.77079,-0.32002 -0.95798,-0.003 -1.2567,-0.13021 -1.82296,-0.77553 -0.65925,-0.7513 -0.69739,-0.76138 -1.43567,-0.3796 -0.41713,0.2157 -0.96337,0.3933 -1.21386,0.39466 -0.75836,0.004 -3.11265,1.21449 -3.11265,1.60025 0,0.19836 0.29837,1.0124 0.66306,1.80897 0.65538,1.43154 0.65739,1.45398 0.17391,1.93745 -0.45824,0.45825 -0.98352,0.4948 -8.31429,0.57862 -7.44498,0.0851 -7.84146,0.0662 -8.16055,-0.38934 -0.23967,-0.34219 -0.45749,-0.41603 -0.76328,-0.25876 -0.23534,0.12104 -1.16811,0.28408 -2.07284,0.36231 -1.2949,0.11197 -1.73975,0.0564 -2.09046,-0.2608 -0.41008,-0.37098 -0.49295,-0.35849 -1.04165,0.15698 -0.58971,0.55401 -0.68018,0.55981 -8.41187,0.53976 -7.128905,-0.0185 -14.1644,0.0768 -32.173507,0.43591 -9.748747,0.18562 -15.736794,0.47553 -24.864034,0.572 -0.34797,-0.008 -1.8021,-0.0273 -3.2314,-0.0443 l -2.59874,-0.031 0.068,-4.03188 c 0.0674,-3.99759 0.0628,-4.03612 -0.54473,-4.52998 -0.89678,-0.72891 -2.55276,-0.56938 -2.96845,0.28598 -0.95093,1.95673 -1.41038,3.55101 -1.52344,5.28637 -0.0691,1.05934 -0.28679,2.35543 -0.48396,2.88021 -0.5057,1.34601 -0.47269,4.98936 0.0553,6.09649 0.25406,0.53276 0.34987,1.12211 0.24824,1.52699 l -0.16548,0.65938 h -4.75511 c -5.65762,0 -5.65017,-0.003 -5.81061,2.21525 -0.0941,1.30124 -0.0321,1.60218 0.42426,2.05855 0.50571,0.50571 0.7885,0.5345 5.25051,0.5345 h 4.716 l 0.6097,0.65787 c 0.57711,0.62272 0.72072,0.65315 2.68624,0.56941 1.8801,-0.0801 2.1304,-0.0346 2.64594,0.48093 0.31317,0.31317 0.75266,0.5694 0.97664,0.5694 0.47043,0 39.350846,4.12687 44.229751,4.69467 1.793166,0.20868 3.460606,0.31585 3.705427,0.23814 0.510406,-0.16199 0.744436,-0.85291 0.749391,-2.21232 0.0029,-0.83505 0.07719,-0.94901 0.617762,-0.94901 1.504023,0 1.986146,2.07171 1.580007,5.23269 -0.258317,1.0979 -0.278509,1.51372 -0.07929,2.16275 0.327883,1.06831 -0.186397,2.62645 -1.735148,8.92747 -2.381163,9.68779 -6.263069,19.74937 -10.897219,28.24469 -0.896451,1.64337 -1.629906,3.27013 -1.629906,3.61503 0,0.53718 0.519033,0.93776 3.620787,2.7944 1.991428,1.19203 3.81352,2.16733 4.049091,2.16733 0.235572,0 0.665221,-0.23692 0.954787,-0.52649 z m 28.606465,-31.72419 c -0.43149,-0.22312 -0.95899,-0.67195 -1.17221,-0.99738 -0.51001,-0.77836 -2.6539,-7.18306 -2.6539,-7.92829 v -0.57995 h 4.38135 4.38135 l 0.66392,0.69595 c 1.47365,1.54472 1.6569,4.15158 0.44305,6.30241 -0.97331,1.72462 -0.99433,2.36518 -0.0776,2.36518 0.96279,0 3.13642,-2.28783 3.60655,-3.79603 0.19524,-0.62634 0.42061,-2.04985 0.50083,-3.16335 l 0.14584,-2.02455 1.51841,-0.0658 1.5184,-0.0658 1.60585,2.66736 c 0.88321,1.46705 1.54928,2.81476 1.48015,2.99491 -0.0691,0.18015 -0.79176,0.72868 -1.60585,1.21896 -0.81408,0.49029 -2.09545,1.27899 -2.8475,1.75269 -1.27918,0.80572 -1.54032,0.86945 -4.0491,0.98813 -4.38327,0.20737 -6.96607,0.0873 -7.83955,-0.36438 z"
       id="path3265-6"
       inkscape:connector-curvature="0"
       sodipodi:nodetypes="ccsccccccscccccsccccccsscsscsccccccsscssscccscccccscsscccccsccscsccccccccccccccccsccsccccssccscccsscsccccscccccscccccscccccc" /><path
       style="display:inline;opacity:1;fill:#ffffff;fill-opacity:0.2;stroke-width:0.25306839"
       d="m 33.482422,56.408203 c -0.740626,-0.05604 -1.484335,0.205634 -1.744141,0.740235 -0.95093,1.95673 -1.410377,3.551749 -1.523437,5.287109 -0.0691,1.05934 -0.287205,2.354126 -0.484375,2.878906 -0.275249,0.732624 -0.384547,2.14262 -0.347657,3.457031 0.03058,-0.980861 0.14225,-1.910305 0.347657,-2.457031 0.19717,-0.52478 0.415275,-1.819566 0.484375,-2.878906 0.11306,-1.73536 0.572507,-3.330379 1.523437,-5.287109 0.41569,-0.85536 2.07197,-1.014067 2.96875,-0.285157 0.426074,0.346355 0.548342,0.539763 0.564453,1.960938 0.02327,-2.317218 -0.05941,-2.550391 -0.564453,-2.960938 -0.336292,-0.273341 -0.780233,-0.421453 -1.224609,-0.455078 z m 99.660158,1.378906 c -0.18423,-0.04871 -0.37696,0.04348 -0.7461,0.234375 -0.41713,0.2157 -0.96435,0.393172 -1.21484,0.394532 -0.75836,0.004 -3.11133,1.215802 -3.11133,1.601562 0,0.1033 0.0838,0.378736 0.21289,0.726563 0.58056,-0.505118 2.273,-1.324826 2.89844,-1.328125 0.25049,-0.0014 0.79771,-0.178832 1.21484,-0.394532 0.73828,-0.38178 0.7763,-0.37044 1.43555,0.38086 0.56626,0.64532 0.86429,0.77239 1.82227,0.77539 0.63014,0.002 1.42769,0.146353 1.77148,0.320313 0.99109,0.5015 1.7793,1.878695 1.7793,3.109375 0,1.63034 0.17026,1.880859 1.27734,1.880859 0.53364,0 1.04095,-0.114726 1.12696,-0.253906 0.0958,-0.15507 2.11391,-0.251953 5.21289,-0.251953 4.93076,0 5.073,0.01441 5.63671,0.578125 0.74773,0.74773 2.92059,4.732334 3.32032,6.089844 l 0.30859,1.050781 c 0.42641,2.09641 0.47336,2.268405 1.89453,2.390625 l 1.51758,0.08789 0.17969,-1.4375 c 0.13164,-2.12027 0.73767,-2.498776 3.99219,-3.291016 3.37793,-0.82228 4.22819,-0.830415 5.38281,-0.04687 0.49792,0.3379 1.01901,0.652819 1.1582,0.699219 0.13919,0.0464 0.40436,0.766009 0.58984,1.599609 0.15377,0.691113 0.23489,1.857211 0.25391,3.533203 0.006,-2.217747 -0.0725,-3.717865 -0.25391,-4.533203 -0.18548,-0.8336 -0.45065,-1.553209 -0.58984,-1.599609 -0.13919,-0.0464 -0.66028,-0.361319 -1.1582,-0.699219 -1.15462,-0.78354 -2.00488,-0.775405 -5.38281,0.04687 -3.25452,0.79224 -3.86055,1.170746 -3.99219,3.291016 l -0.17969,1.4375 -1.51758,-0.08789 c -1.42117,-0.12222 -1.46812,-0.294215 -1.89453,-2.390625 l -0.30859,-1.050781 c -0.39973,-1.35751 -2.57259,-5.342114 -3.32032,-6.089844 -0.56371,-0.56371 -0.70595,-0.578125 -5.63671,-0.578125 -3.09898,0 -5.11707,0.09688 -5.21289,0.251953 -0.086,0.13918 -0.59332,0.253906 -1.12696,0.253906 -1.10708,0 -1.27734,-0.250519 -1.27734,-1.880859 0,-1.23068 -0.78821,-2.607875 -1.7793,-3.109375 -0.34379,-0.17396 -1.14134,-0.318273 -1.77148,-0.320313 -0.95798,-0.003 -1.25601,-0.13007 -1.82227,-0.77539 -0.32962,-0.37565 -0.50523,-0.566525 -0.68945,-0.615235 z m -26.10547,5.753907 c -0.14057,0.02118 -0.29987,0.154374 -0.57422,0.412109 -0.58971,0.55401 -0.68042,0.559113 -8.412109,0.539063 -7.128905,-0.0185 -14.162768,0.07644 -32.171875,0.435546 C 56.130159,65.113354 50.140912,65.40353 41.013672,65.5 40.665702,65.492 39.212503,65.47208 37.783203,65.45508 l -2.582031,-0.03125 -0.01758,1 2.599609,0.03125 c 1.4293,0.017 2.882499,0.03692 3.230469,0.04492 9.12724,-0.09647 15.116487,-0.386646 24.865234,-0.572266 18.009107,-0.35911 25.04297,-0.454047 32.171875,-0.435546 7.731691,0.02005 7.822401,0.01495 8.412111,-0.539063 0.5487,-0.51547 0.63289,-0.529183 1.04297,-0.158203 0.35071,0.3172 0.79494,0.373689 2.08984,0.261719 0.90473,-0.07823 1.83693,-0.242242 2.07227,-0.363282 0.30579,-0.15727 0.524,-0.08242 0.76367,0.259766 0.31909,0.45554 0.71518,0.473772 8.16016,0.388672 7.33077,-0.08382 7.85621,-0.119875 8.31445,-0.578125 0.37449,-0.374477 0.44622,-0.49131 0.16016,-1.181641 -0.0498,0.05752 -0.0885,0.109947 -0.16016,0.181641 -0.45824,0.45825 -0.98368,0.494305 -8.31445,0.578125 -7.44498,0.0851 -7.84107,0.06687 -8.16016,-0.388672 -0.23967,-0.34219 -0.45788,-0.417036 -0.76367,-0.259766 -0.23534,0.12104 -1.16754,0.285052 -2.07227,0.363282 -1.2949,0.11197 -1.73913,0.05548 -2.08984,-0.261719 -0.20504,-0.18549 -0.32819,-0.27509 -0.46875,-0.253906 z m -77.031251,9.517578 -0.136718,0.539062 h -4.75586 c -5.65762,0 -5.650107,-0.0015 -5.810547,2.216797 -0.03949,0.546104 -0.04092,0.892709 -0.0078,1.171875 0.0041,-0.06395 0.0028,-0.102393 0.0078,-0.171875 0.16044,-2.21825 0.152927,-2.216797 5.810547,-2.216797 h 4.75586 l 0.166015,-0.658203 c 0.06112,-0.243482 0.04387,-0.556378 -0.0293,-0.880859 z m 140.857421,12.78125 c 0.0127,2.984661 0.32591,6.284358 0.86719,8.625 0.60841,2.630998 0.93248,4.716043 0.98828,6.308596 0.0827,-1.675293 -0.24363,-4.088457 -0.98828,-7.308596 -0.48016,-2.076368 -0.79331,-4.924686 -0.86719,-7.625 z m -83.249999,0.429687 c -0.01892,0.446447 -0.05212,0.91157 -0.117187,1.417969 -0.208921,0.887957 -0.254814,1.334598 -0.16211,1.814453 0.03518,-0.230249 0.08513,-0.487287 0.16211,-0.814453 0.116751,-0.908678 0.150418,-1.712658 0.117187,-2.417969 z m -0.148437,4.833985 c -0.140913,1.224643 -0.705823,3.292509 -1.783203,7.675781 -2.381163,9.687793 -6.264288,19.748823 -10.898438,28.244143 -0.896451,1.64337 -1.628906,3.27033 -1.628906,3.61523 0,0.14533 0.04528,0.28259 0.162109,0.43945 0.260626,-0.69134 0.815815,-1.86131 1.466797,-3.05468 4.63415,-8.49532 8.517275,-18.55635 10.898438,-28.244143 1.435764,-5.84134 1.972304,-7.598168 1.783203,-8.675781 z m 52.318356,3.613281 c -0.16303,1.806848 0.56513,3.21502 2.61524,5.441403 3.57405,3.88136 6.18546,7.94637 7.69336,11.97657 0.16204,0.43311 0.27419,0.79486 0.33789,1.11718 0.13856,-0.57223 0.0119,-1.18231 -0.33789,-2.11718 -1.5079,-4.0302 -4.11931,-8.09521 -7.69336,-11.976567 -1.66057,-1.803361 -2.4567,-3.066394 -2.61524,-4.441406 z m -33.22461,0.126953 v 0.580078 c 0,0.74523 2.14429,7.149372 2.6543,7.927732 0.21322,0.32543 0.74039,0.77493 1.17188,0.99805 0.87348,0.45168 3.45657,0.57065 7.83984,0.36328 2.50878,-0.11868 2.76965,-0.18061 4.04883,-0.98633 0.75205,-0.4737 2.03357,-1.26361 2.84765,-1.7539 0.81409,-0.49028 1.53637,-1.0386 1.60547,-1.21875 0.0273,-0.0711 -0.084,-0.36002 -0.2539,-0.73047 -0.29029,0.25355 -0.79084,0.61152 -1.35157,0.94922 -0.81408,0.49029 -2.0956,1.2802 -2.84765,1.7539 -1.27918,0.80572 -1.54005,0.86765 -4.04883,0.98633 -0.31982,0.0151 -0.56065,0.0157 -0.86133,0.0273 -0.38804,0.28308 -0.74651,0.4668 -1.01172,0.4668 -0.4001,0 -0.6107,-0.13121 -0.65234,-0.41211 -2.84328,0.0527 -4.62784,-0.0903 -5.31445,-0.44531 -0.43149,-0.22312 -0.95866,-0.67262 -1.17188,-0.99805 -0.45885,-0.70027 -2.22533,-5.917929 -2.57812,-7.50781 z m 10.64258,3.529297 c -0.0753,0.834696 -0.3293,1.681793 -0.77344,2.468753 -0.72175,1.27888 -0.91532,1.95905 -0.5957,2.22656 0.12251,-0.32831 0.31397,-0.72735 0.5957,-1.22656 0.6236,-1.10495 0.87283,-2.328933 0.77344,-3.468753 z"
       id="path3726"
       inkscape:connector-curvature="0" /></g><g
     inkscape:groupmode="layer"
     id="layer6"
     inkscape:label="global shadow"
     style="display:inline"
     sodipodi:insensitive="true"><circle
       style="display:inline;fill:url(#linearGradient3992);fill-opacity:1;stroke-width:3.77952766;stroke-linecap:square;stroke-linejoin:round;stroke-miterlimit:4;stroke-dasharray:7.55905533, 7.55905533;stroke-dashoffset:0;paint-order:stroke fill markers"
       id="path2101-6"
       cx="96"
       cy="96"
       r="88" /></g></svg>